<?xml version="1.0" encoding="UTF-8"?>
<svg width="512" height="512" viewBox="0 0 24 24" fill="none" xmlns="http://www.w3.org/2000/svg">
  <path d="M12 3C16.9706 3 21 7.02944 21 12C21 16.9706 16.9706 21 12 21C7.02944 21 3 16.9706 3 12C3 7.02944 7.02944 3 12 3Z" stroke="#4F46E5" stroke-width="2"/>
  <path d="M12 8C13.6569 8 15 9.34315 15 11C15 12.6569 13.6569 14 12 14C10.3431 14 9 12.6569 9 11C9 9.34315 10.3431 8 12 8Z" stroke="#4F46E5" stroke-width="2"/>
  <path d="M12 14V17M9 17H15" stroke="#4F46E5" stroke-width="2" stroke-linecap="round"/>
</svg>